<svg xmlns="http://www.w3.org/2000/svg" width="19" height="12" viewBox="0 0 19 12">
    <path fill="#000" fill-rule="nonzero" d="M16.505 1.568h-4.51V.46h4.51v1.108zM8.993 6.11c.29.446.436.987.436 1.623 0 .657-.164 1.246-.497 1.767a3.077 3.077 0 0 1-2.057 1.426c-.486.1-1.013.15-1.581.15H.25V0h5.409c1.363.022 2.33.413 2.9 1.18.343.47.513 1.035.513 1.691 0 .678-.172 1.22-.518 1.631-.192.23-.476.44-.853.63.57.207 1.003.532 1.292.979zm-6.16-1.744h2.37c.487 0 .88-.091 1.184-.275.303-.182.454-.507.454-.973 0-.516-.2-.858-.601-1.022-.345-.115-.787-.174-1.322-.174H2.833v2.444zm4.236 3.208c0-.575-.237-.973-.712-1.186-.265-.122-.64-.184-1.12-.188H2.833v2.952H5.2c.486 0 .862-.063 1.134-.194.49-.242.735-.701.735-1.384zm11.11-1.802c.054.363.079.889.069 1.576h-5.841c.032.797.31 1.355.838 1.674.318.2.704.298 1.156.298.477 0 .865-.12 1.164-.364.163-.13.307-.313.431-.545h2.141c-.056.471-.314.949-.777 1.434-.718.772-1.724 1.159-3.017 1.159-1.068 0-2.01-.327-2.826-.977-.814-.652-1.223-1.71-1.223-3.178 0-1.377.367-2.43 1.104-3.164.739-.734 1.693-1.1 2.87-1.1.697 0 1.325.123 1.886.371a3.24 3.24 0 0 1 1.385 1.175c.33.473.54 1.019.64 1.641zm-2.108.207c-.039-.551-.225-.969-.56-1.254-.333-.286-.748-.43-1.243-.43-.54 0-.956.154-1.252.456-.298.3-.483.71-.56 1.228h3.615z"/>
</svg>
