<svg xmlns="http://www.w3.org/2000/svg" width="65" height="17" viewBox="0 0 65 17">
    <g fill="none" fill-rule="nonzero">
        <path fill="#EA1E25" d="M6.13 2.44A1.51 1.51 0 0 0 5 2a1.69 1.69 0 0 0-1.16.41 3 3 0 0 0-.74 1 5.41 5.41 0 0 0-.4 1.27 8 8 0 0 0-.15 1.21A3.11 3.11 0 0 1 3.83 4.8a3.89 3.89 0 0 1 1.65-.33 3.86 3.86 0 0 1 1.61.36 4 4 0 0 1 1.34 1c.34.39.596.846.75 1.34a5 5 0 0 1 .24 1.52 5.2 5.2 0 0 1-.32 1.84A4.41 4.41 0 0 1 8.18 12a4.26 4.26 0 0 1-1.42 1 4.56 4.56 0 0 1-1.83.36 4.56 4.56 0 0 1-2.4-.58A4.44 4.44 0 0 1 1 11.23a6.24 6.24 0 0 1-.78-2.12A13.17 13.17 0 0 1 0 6.7c0-.801.09-1.6.27-2.38a7 7 0 0 1 .88-2.15A5 5 0 0 1 2.71.6 4.25 4.25 0 0 1 5 0a4.85 4.85 0 0 1 1.57.24 4 4 0 0 1 1.27.68c.369.297.675.664.9 1.08.243.475.399.99.46 1.52H6.72a2.21 2.21 0 0 0-.59-1.08zM3.95 6.62a1.83 1.83 0 0 0-.65.52 2.29 2.29 0 0 0-.38.76 3.16 3.16 0 0 0-.13.91c.001.296.049.589.14.87.086.279.222.54.4.77A2 2 0 0 0 4 11c.273.138.575.206.88.2.29.006.575-.063.83-.2a2 2 0 0 0 .61-.53 2.3 2.3 0 0 0 .38-.75 2.94 2.94 0 0 0 .13-.86A3.31 3.31 0 0 0 6.69 8a2.49 2.49 0 0 0-.36-.77 1.84 1.84 0 0 0-.61-.55 1.75 1.75 0 0 0-.87-.21 2 2 0 0 0-.9.15z"/>
        <path fill="#EA1E25" d="M12.18 10.9c.294.315.709.49 1.14.48a1.68 1.68 0 0 0 1.17-.38 3 3 0 0 0 .73-1 5.16 5.16 0 0 0 .39-1.27c.074-.4.128-.804.16-1.21a3.11 3.11 0 0 1-1.25 1.1 4 4 0 0 1-3.26 0 4 4 0 0 1-1.34-1 3.71 3.71 0 0 1-.75-1.34 5 5 0 0 1-.27-1.59 5.18 5.18 0 0 1 .32-1.84A4.33 4.33 0 0 1 11.56.37 4.46 4.46 0 0 1 13.39 0a4.55 4.55 0 0 1 2.41.58 4.44 4.44 0 0 1 1.51 1.52 6.33 6.33 0 0 1 .79 2.13c.146.792.22 1.595.22 2.4A10.57 10.57 0 0 1 18 9a6.94 6.94 0 0 1-.88 2.15 4.85 4.85 0 0 1-1.56 1.56 4.3 4.3 0 0 1-2.33.6 5 5 0 0 1-1.54-.23 3.73 3.73 0 0 1-1.26-.69 3.64 3.64 0 0 1-.9-1.12 4.42 4.42 0 0 1-.46-1.5h2.47a2.2 2.2 0 0 0 .64 1.13zm2.2-4.18a1.85 1.85 0 0 0 .62-.53 2.29 2.29 0 0 0 .38-.76 3.15 3.15 0 0 0 .13-.91 2.86 2.86 0 0 0-.14-.87 2.45 2.45 0 0 0-.4-.77 1.87 1.87 0 0 0-1.53-.74 1.68 1.68 0 0 0-.82.2 2 2 0 0 0-.62.53 2.3 2.3 0 0 0-.38.75 2.94 2.94 0 0 0-.13.86c0 .3.04.6.12.89.074.276.196.536.36.77.16.227.368.415.61.55.267.144.567.217.87.21a2 2 0 0 0 .93-.19v.01z"/>
        <path fill="#FFF" d="M20.88 3.61v1.21a2.86 2.86 0 0 1 1.24-1.12 3.71 3.71 0 0 1 1.61-.35 4.11 4.11 0 0 1 1.92.42A4 4 0 0 1 27 4.89a4.73 4.73 0 0 1 .79 1.62c.157.63.227 1.28.21 1.93a6.51 6.51 0 0 1-.26 1.83 4.67 4.67 0 0 1-.74 1.56 3.86 3.86 0 0 1-1.3 1.08 3.91 3.91 0 0 1-1.82.4 3.68 3.68 0 0 1-1.62-.31A3.07 3.07 0 0 1 21 11.9v4.49h-2.6V3.61h2.48zm3.38 7.51a2.09 2.09 0 0 0 .7-.67c.19-.305.32-.645.38-1a5.68 5.68 0 0 0 .11-1.12c0-.377-.04-.752-.12-1.12a3 3 0 0 0-.39-1 2.2 2.2 0 0 0-.7-.7 2 2 0 0 0-1.05-.27 2 2 0 0 0-1.07.27 2.14 2.14 0 0 0-.7.69 2.85 2.85 0 0 0-.38 1 5.78 5.78 0 0 0-.11 1.14c-.019.385.005.77.07 1.15.063.354.192.693.38 1a2 2 0 0 0 .7.67c.67.34 1.46.34 2.13 0l.05-.04zM28.39 2.14V0H31v2.14h-2.61zM31 3.61v9.47h-2.6V3.61H31z"/>
        <path fill="#FFF" d="M31.06 3.61h3l1.67 2.47 1.65-2.47h2.88L37.1 8l3.5 5h-3l-2-3-2 3h-2.83l3.41-5z"/>
        <path fill="#FFF" d="M43.09 10.8a2.67 2.67 0 0 0 3 .17 1.63 1.63 0 0 0 .7-.83h2.29a4.34 4.34 0 0 1-1.68 2.44 5 5 0 0 1-2.75.73 5.41 5.41 0 0 1-2-.36 4.2 4.2 0 0 1-1.52-1 4.58 4.58 0 0 1-1-1.58 5.76 5.76 0 0 1-.34-2 5.52 5.52 0 0 1 .35-2 4.58 4.58 0 0 1 2.52-2.64 4.9 4.9 0 0 1 2-.38 4.5 4.5 0 0 1 2.11.47 4.21 4.21 0 0 1 1.47 1.25 5.15 5.15 0 0 1 .83 1.79A6.68 6.68 0 0 1 49.28 9h-6.83a2.63 2.63 0 0 0 .64 1.8zm2.94-5a1.83 1.83 0 0 0-1.42-.51 2.27 2.27 0 0 0-1 .21 1.92 1.92 0 0 0-1.01 1.18 3 3 0 0 0-.12.62h4.23A3 3 0 0 0 46 5.82l.03-.02zM52.21 0v13.08h-2.6V0zM55.17 10.72c.112.195.266.362.45.49.191.13.405.225.63.28a3 3 0 0 0 1.32.03 2 2 0 0 0 .55-.2 1.25 1.25 0 0 0 .41-.37 1 1 0 0 0 .16-.58c0-.387-.26-.68-.78-.88a15.56 15.56 0 0 0-2.17-.59c-.38-.087-.75-.187-1.11-.3a3.77 3.77 0 0 1-1-.46 2.22 2.22 0 0 1-.63-.7 2 2 0 0 1-.26-1.05 2.85 2.85 0 0 1 .36-1.5A2.64 2.64 0 0 1 54 4a4.13 4.13 0 0 1 1.32-.48 8.17 8.17 0 0 1 1.5-.14c.5 0 1 .05 1.49.15a4 4 0 0 1 1.34.47 3 3 0 0 1 .94.92c.253.442.394.94.41 1.45h-2.43a1.14 1.14 0 0 0-.57-1 2.6 2.6 0 0 0-1.21-.27h-.48a1.58 1.58 0 0 0-.47.12 1 1 0 0 0-.36.27.7.7 0 0 0-.15.47.71.71 0 0 0 .26.57 2 2 0 0 0 .67.36c.308.102.622.185.94.25l1.08.24a11 11 0 0 1 1.11.31 3.67 3.67 0 0 1 1 .49c.278.198.51.454.68.75.162.332.238.7.22 1.07a2.88 2.88 0 0 1-1.36 2.58 4 4 0 0 1-1.38.54 8.06 8.06 0 0 1-3.19 0A4.25 4.25 0 0 1 54 12.6a3.13 3.13 0 0 1-1-1 3.18 3.18 0 0 1-.48-1.6H55c-.007.25.051.5.17.72zM64.52 10.26v2.82h-2.88v-2.82z"/>
    </g>
</svg>
