<svg xmlns="http://www.w3.org/2000/svg" width="13" height="13" viewBox="0 0 13 13">
    <path fill="#FFF" fill-rule="nonzero" d="M6.5 0A6.507 6.507 0 0 0 0 6.5C0 10.084 2.916 13 6.5 13S13 10.084 13 6.5 10.084 0 6.5 0zm5.688 6.5c-1.579-.41-2.956-.427-4.145-.202-.173-.4-.352-.785-.533-1.153 1.248-.502 2.429-1.24 3.34-2.303A5.66 5.66 0 0 1 12.187 6.5zm-1.905-4.236c-.833.995-1.957 1.677-3.149 2.143a28.228 28.228 0 0 0-2.103-3.395c.47-.126.96-.2 1.469-.2 1.453 0 2.776.553 3.783 1.452zm-6.059-.973c.367.493 1.23 1.71 2.126 3.391-2.22.692-4.492.729-5.427.708A5.704 5.704 0 0 1 4.224 1.29zM.812 6.5c0-.1.01-.198.016-.297.151.005.34.009.56.009 1.187 0 3.284-.117 5.343-.787.17.343.338.7.503 1.071-2.73.822-4.312 2.896-4.913 3.848A5.658 5.658 0 0 1 .812 6.5zm2.105 4.411C3.36 10.138 4.81 7.99 7.545 7.23c.552 1.357 1.025 2.867 1.29 4.452a5.649 5.649 0 0 1-5.918-.77zm6.672.358a22.12 22.12 0 0 0-1.23-4.215c1.078-.172 2.328-.123 3.762.27a5.69 5.69 0 0 1-2.532 3.945z"/>
</svg>
