<svg xmlns="http://www.w3.org/2000/svg" width="13" height="13" viewBox="0 0 13 13">
    <path fill="#FFF" fill-rule="nonzero" d="M9.224 0A3.78 3.78 0 0 1 13 3.776v5.448A3.78 3.78 0 0 1 9.224 13H3.776A3.78 3.78 0 0 1 0 9.224V3.776A3.78 3.78 0 0 1 3.776 0h5.448zm2.76 9.224V3.776a2.764 2.764 0 0 0-2.76-2.76H3.776a2.764 2.764 0 0 0-2.76 2.76v5.448a2.764 2.764 0 0 0 2.76 2.76h5.448a2.764 2.764 0 0 0 2.76-2.76zM6.5 2.996A3.508 3.508 0 0 1 10.004 6.5 3.508 3.508 0 0 1 6.5 10.004 3.508 3.508 0 0 1 2.996 6.5 3.508 3.508 0 0 1 6.5 2.996zm0 5.992A2.491 2.491 0 0 0 8.988 6.5 2.491 2.491 0 0 0 6.5 4.012 2.491 2.491 0 0 0 4.012 6.5 2.491 2.491 0 0 0 6.5 8.988zm3.555-5.535a.508.508 0 1 1 0-1.015.508.508 0 0 1 0 1.015z"/>
</svg>
