<?xml version="1.0" encoding="iso-8859-1"?>
<!-- Generator: Adobe Illustrator 19.0.0, SVG Export Plug-In . SVG Version: 6.00 Build 0)  -->
<svg version="1.1" id="Layer_1" xmlns="http://www.w3.org/2000/svg" xmlns:xlink="http://www.w3.org/1999/xlink" x="0px" y="0px"
	 viewBox="0 0 512 512" style="enable-background:new 0 0 512 512;" xml:space="preserve">
<path style="fill:#FDCD99;" d="M282.614,256.016l28.655-211.508c2.945-21.205-11.912-40.981-33.107-44.084
	C276.238,0.141,274.315,0,272.412,0c-8.391,0-16.401,2.696-23.151,7.787c-8.249,6.234-13.608,15.266-15.108,25.623l-28.248,172.878
	L177.701,33.514c-2.771-19.091-19.358-33.493-38.596-33.493c-1.836,0-3.706,0.136-5.565,0.402
	c-21.14,3.115-35.932,22.875-32.965,44.102l29.562,218.619c-24.964,12.104-41.083,37.558-41.083,65.216v44.519
	C89.053,449.591,151.462,512,228.175,512h55.649c76.713,0,139.122-62.409,139.122-139.122V256.016H282.614L282.614,256.016z"/>
<g>
	<path style="fill:#FFE0B2;" d="M383.992,311.665c-21.477,0-38.954-17.477-38.954-38.954v-66.778
		c0-21.477,17.477-38.954,38.954-38.954c10.391,0,20.161,4.059,27.53,11.424c7.369,7.369,11.424,17.145,11.424,27.53v66.778
		C422.947,294.188,405.47,311.665,383.992,311.665z"/>
	<path style="fill:#FFE0B2;" d="M306.084,311.665c-21.477,0-38.954-17.477-38.954-38.954v-66.778l1.152-9.179
		c4.522-17.798,20.01-29.775,37.802-29.775c10.391,0,20.161,4.059,27.531,11.424c7.369,7.369,11.424,17.145,11.424,27.53v66.778
		C345.038,294.188,327.561,311.665,306.084,311.665z"/>
	<path style="fill:#FFE0B2;" d="M94.619,333.924c-3.065,0-5.565-2.494-5.565-5.565c0-27.987,16.466-53.773,41.944-65.697
		c9.424-4.336,19.956-6.647,30.4-6.647h66.778c21.477,0,38.954,17.477,38.954,38.954c0,21.477-17.477,38.954-38.954,38.954H94.619z"
		/>
</g>
<g>
</g>
<g>
</g>
<g>
</g>
<g>
</g>
<g>
</g>
<g>
</g>
<g>
</g>
<g>
</g>
<g>
</g>
<g>
</g>
<g>
</g>
<g>
</g>
<g>
</g>
<g>
</g>
<g>
</g>
</svg>
